<?xml version="1.0" encoding="utf-8"?>
<!-- Generator: Adobe Illustrator 25.4.1, SVG Export Plug-In . SVG Version: 6.00 Build 0)  -->
<svg version="1.1" id="Layer_1" xmlns="http://www.w3.org/2000/svg" xmlns:xlink="http://www.w3.org/1999/xlink" x="0px" y="0px"
	 viewBox="0 0 150 150" style="enable-background:new 0 0 150 150;" xml:space="preserve">
<style type="text/css">
	.st0{fill:#FFFFFF;stroke:#FFFFFF;stroke-width:0.3;stroke-miterlimit:10;}
</style>
<g>
	<g>
		<g>
			<circle class="st0" cx="2.4" cy="44.6" r="1.9"/>
		</g>
		<g>
			<circle class="st0" cx="2.4" cy="50.7" r="1.9"/>
		</g>
		<g>
			<circle class="st0" cx="2.4" cy="56.9" r="1.9"/>
		</g>
		<g>
			<circle class="st0" cx="2.4" cy="63.1" r="1.9"/>
		</g>
		<g>
			<circle class="st0" cx="2.4" cy="69.3" r="1.9"/>
		</g>
		<g>
			<circle class="st0" cx="2.4" cy="75.5" r="1.9"/>
		</g>
		<g>
			<circle class="st0" cx="2.4" cy="81.6" r="1.9"/>
		</g>
		<g>
			<circle class="st0" cx="2.4" cy="87.8" r="1.9"/>
		</g>
		<g>
			<circle class="st0" cx="2.4" cy="94" r="1.9"/>
		</g>
		<g>
			<circle class="st0" cx="2.4" cy="100.2" r="1.9"/>
		</g>
		<g>
			<circle class="st0" cx="2.4" cy="106.4" r="1.9"/>
		</g>
		<g>
			<circle class="st0" cx="3.3" cy="112" r="1.9"/>
		</g>
		<g>
			<circle class="st0" cx="8.9" cy="114.7" r="1.9"/>
		</g>
		<g>
			<circle class="st0" cx="14.4" cy="117.5" r="1.9"/>
		</g>
		<g>
			<circle class="st0" cx="19.9" cy="120.3" r="1.9"/>
		</g>
		<g>
			<circle class="st0" cx="25.5" cy="123" r="1.9"/>
		</g>
		<g>
			<circle class="st0" cx="31" cy="125.8" r="1.9"/>
		</g>
		<g>
			<circle class="st0" cx="36.5" cy="128.5" r="1.9"/>
		</g>
		<g>
			<circle class="st0" cx="42" cy="131.3" r="1.9"/>
		</g>
		<g>
			<circle class="st0" cx="47.6" cy="134.1" r="1.9"/>
		</g>
		<g>
			<circle class="st0" cx="53.1" cy="136.8" r="1.9"/>
		</g>
		<g>
			<circle class="st0" cx="58.6" cy="139.6" r="1.9"/>
		</g>
		<g>
			<circle class="st0" cx="64.1" cy="142.4" r="1.9"/>
		</g>
		<g>
			<circle class="st0" cx="69.7" cy="145.1" r="1.9"/>
		</g>
		<g>
			<circle class="st0" cx="75.2" cy="147.6" r="1.9"/>
		</g>
		<g>
			<circle class="st0" cx="80.7" cy="144.8" r="1.9"/>
		</g>
		<g>
			<circle class="st0" cx="86.2" cy="142.1" r="1.9"/>
		</g>
		<g>
			<circle class="st0" cx="91.8" cy="139.3" r="1.9"/>
		</g>
		<g>
			<circle class="st0" cx="97.3" cy="136.5" r="1.9"/>
		</g>
		<g>
			<circle class="st0" cx="102.8" cy="133.8" r="1.9"/>
		</g>
		<g>
			<circle class="st0" cx="108.3" cy="131" r="1.9"/>
		</g>
		<g>
			<circle class="st0" cx="113.9" cy="128.2" r="1.9"/>
		</g>
		<g>
			<circle class="st0" cx="119.4" cy="125.5" r="1.9"/>
		</g>
		<g>
			<circle class="st0" cx="124.9" cy="122.7" r="1.9"/>
		</g>
		<g>
			<circle class="st0" cx="130.5" cy="120" r="1.9"/>
		</g>
		<g>
			<circle class="st0" cx="136" cy="117.2" r="1.9"/>
		</g>
		<g>
			<circle class="st0" cx="141.5" cy="114.4" r="1.9"/>
		</g>
		<g>
			<circle class="st0" cx="147" cy="111.7" r="1.9"/>
		</g>
		<g>
			<circle class="st0" cx="147.3" cy="105.7" r="1.9"/>
		</g>
		<g>
			<circle class="st0" cx="147.3" cy="99.5" r="1.9"/>
		</g>
		<g>
			<circle class="st0" cx="147.3" cy="93.3" r="1.9"/>
		</g>
		<g>
			<circle class="st0" cx="147.3" cy="87.1" r="1.9"/>
		</g>
		<g>
			<circle class="st0" cx="147.3" cy="81" r="1.9"/>
		</g>
		<g>
			<circle class="st0" cx="147.3" cy="74.8" r="1.9"/>
		</g>
		<g>
			<circle class="st0" cx="147.3" cy="68.6" r="1.9"/>
		</g>
		<g>
			<circle class="st0" cx="147.3" cy="62.4" r="1.9"/>
		</g>
		<g>
			<circle class="st0" cx="147.3" cy="56.2" r="1.9"/>
		</g>
		<g>
			<circle class="st0" cx="147.3" cy="50.1" r="1.9"/>
		</g>
		<g>
			<circle class="st0" cx="147.3" cy="43.9" r="1.9"/>
		</g>
		<g>
			<circle class="st0" cx="146.1" cy="38.5" r="1.9"/>
		</g>
		<g>
			<circle class="st0" cx="140.6" cy="35.7" r="1.9"/>
		</g>
		<g>
			<circle class="st0" cx="135.1" cy="32.9" r="1.9"/>
		</g>
		<g>
			<circle class="st0" cx="129.5" cy="30.2" r="1.9"/>
		</g>
		<g>
			<circle class="st0" cx="124" cy="27.4" r="1.9"/>
		</g>
		<g>
			<circle class="st0" cx="118.5" cy="24.6" r="1.9"/>
		</g>
		<g>
			<circle class="st0" cx="113" cy="21.9" r="1.9"/>
		</g>
		<g>
			<circle class="st0" cx="107.4" cy="19.1" r="1.9"/>
		</g>
		<g>
			<circle class="st0" cx="101.9" cy="16.3" r="1.9"/>
		</g>
		<g>
			<circle class="st0" cx="96.4" cy="13.6" r="1.9"/>
		</g>
		<g>
			<circle class="st0" cx="90.9" cy="10.8" r="1.9"/>
		</g>
		<g>
			<circle class="st0" cx="85.3" cy="8.1" r="1.9"/>
		</g>
		<g>
			<circle class="st0" cx="79.8" cy="5.3" r="1.9"/>
		</g>
		<g>
			<circle class="st0" cx="74.3" cy="3.1" r="1.9"/>
		</g>
		<g>
			<circle class="st0" cx="68.7" cy="5.9" r="1.9"/>
		</g>
		<g>
			<circle class="st0" cx="63.2" cy="8.7" r="1.9"/>
		</g>
		<g>
			<circle class="st0" cx="57.7" cy="11.4" r="1.9"/>
		</g>
		<g>
			<circle class="st0" cx="52.2" cy="14.2" r="1.9"/>
		</g>
		<g>
			<circle class="st0" cx="46.6" cy="17" r="1.9"/>
		</g>
		<g>
			<circle class="st0" cx="41.1" cy="19.7" r="1.9"/>
		</g>
		<g>
			<circle class="st0" cx="35.6" cy="22.5" r="1.9"/>
		</g>
		<g>
			<circle class="st0" cx="30.1" cy="25.2" r="1.9"/>
		</g>
		<g>
			<circle class="st0" cx="24.5" cy="28" r="1.9"/>
		</g>
		<g>
			<circle class="st0" cx="19" cy="30.8" r="1.9"/>
		</g>
		<g>
			<circle class="st0" cx="13.5" cy="33.5" r="1.9"/>
		</g>
		<g>
			<circle class="st0" cx="8" cy="36.3" r="1.9"/>
		</g>
		<g>
			<circle class="st0" cx="2.4" cy="39.1" r="1.9"/>
		</g>
	</g>
</g>
</svg>
