<?xml version="1.0" standalone="no"?>
<!DOCTYPE svg PUBLIC "-//W3C//DTD SVG 20010904//EN"
 "http://www.w3.org/TR/2001/REC-SVG-20010904/DTD/svg10.dtd">
<svg version="1.0" xmlns="http://www.w3.org/2000/svg"
 width="700.000000pt" height="700.000000pt" viewBox="0 0 700.000000 700.000000"
 preserveAspectRatio="xMidYMid meet">
<metadata>
Created by potrace 1.14, written by Peter Selinger 2001-2017
</metadata>
<g transform="translate(0.000000,700.000000) scale(0.100000,-0.100000)"
fill="#000000" stroke="none">
<path d="M0 6765 l0 -235 1635 0 1635 0 0 -22 c1 -32 1 -304 1 -355 l-1 -43
-1144 0 -1144 0 1 -237 2 -238 1130 -1 c622 -1 1137 -2 1145 -3 13 -1 15 -38
13 -277 l-3 -275 -51 -97 c-28 -53 -64 -119 -79 -147 -15 -27 -58 -108 -95
-180 -37 -71 -85 -161 -105 -200 -21 -38 -61 -115 -90 -170 -29 -55 -69 -131
-90 -170 -21 -38 -63 -119 -95 -180 -32 -60 -72 -137 -90 -170 -18 -33 -52
-98 -77 -145 -25 -47 -123 -233 -219 -414 l-174 -329 -22 114 c-12 63 -25 129
-28 148 -3 19 -7 43 -10 55 -3 12 -7 32 -9 46 -2 14 -18 99 -36 190 -18 91
-34 174 -36 185 -2 11 -6 31 -9 45 -6 26 -7 35 -21 110 -4 25 -8 47 -9 50 -1
3 -5 25 -9 50 -5 25 -10 54 -13 65 -5 24 -41 217 -49 260 -3 17 -9 48 -14 70
-5 22 -11 54 -14 70 -5 27 -100 520 -110 570 -2 11 -16 89 -32 173 l-28 154
-241 -5 c-132 -3 -241 -6 -243 -6 -2 -1 0 -6 3 -11 4 -6 9 -23 11 -38 3 -15
16 -70 29 -122 13 -52 33 -135 44 -185 12 -49 37 -157 57 -240 19 -82 37 -157
39 -165 4 -22 291 -1232 325 -1375 16 -66 41 -172 56 -235 14 -63 35 -151 46
-195 10 -44 21 -89 23 -100 2 -11 17 -78 35 -150 58 -240 139 -583 144 -610 3
-15 7 -29 9 -31 3 -3 39 60 135 236 14 25 28 50 32 55 4 6 25 44 47 85 22 41
49 91 60 110 46 81 172 311 223 405 23 44 46 85 50 90 4 6 24 41 44 78 20 37
45 82 55 100 10 18 46 84 81 147 35 63 71 129 81 147 10 18 35 63 55 100 21
37 105 190 187 338 82 149 165 300 185 338 19 37 37 65 39 63 7 -6 5 -1287 -1
-1293 -3 -3 -138 -5 -301 -5 l-295 1 0 -254 0 -255 301 -2 301 -3 -1 -390 c0
-214 0 -409 -1 -432 l0 -43 -1144 0 -1143 0 -1 -244 c-1 -221 1 -244 16 -248
9 -2 524 -3 1145 -3 l1127 1 1 -36 c2 -93 -3 -365 -6 -368 -2 -2 -737 -4
-1634 -4 l-1631 0 0 -239 0 -239 3500 0 3500 0 0 239 0 239 -1601 0 c-880 0
-1602 2 -1605 5 -4 4 -7 346 -4 397 0 3 496 5 1103 5 606 0 1107 1 1113 3 9 2
12 73 12 248 l-1 244 -1113 0 -1114 0 0 100 c0 55 -1 210 -1 345 0 135 1 286
1 335 l0 90 300 0 300 0 0 254 0 254 -296 0 c-163 0 -298 3 -300 5 -3 2 -6
297 -7 655 -1 358 1 648 4 644 6 -6 455 -818 583 -1052 16 -30 40 -73 52 -95
12 -22 34 -60 47 -85 29 -53 438 -794 475 -860 49 -89 86 -156 100 -185 l16
-29 7 24 c4 14 26 106 49 205 42 178 96 408 181 760 23 99 44 187 46 196 1 9
19 83 38 165 20 82 38 156 40 164 2 8 12 54 24 102 11 48 23 98 25 110 3 13
32 138 66 278 34 140 63 266 66 280 3 14 12 52 20 85 9 33 17 67 19 75 26 112
48 208 75 320 17 74 33 142 35 150 2 8 10 44 19 80 62 256 88 367 91 381 2 9
8 33 13 53 6 20 10 36 9 36 -1 1 -111 3 -243 7 l-241 5 -8 -48 c-3 -27 -24
-139 -45 -249 -22 -110 -42 -216 -45 -235 -3 -19 -10 -51 -15 -70 -5 -19 -12
-55 -15 -80 -4 -25 -22 -121 -41 -215 -19 -93 -37 -183 -39 -200 -2 -16 -7
-41 -10 -55 -9 -47 -24 -125 -65 -340 -22 -118 -47 -246 -55 -285 -14 -71 -70
-367 -79 -418 -3 -15 -7 -35 -10 -45 -3 -9 -7 -35 -11 -56 -5 -39 -12 -54 -18
-45 -2 2 -34 63 -72 134 -80 153 -131 249 -193 365 -25 47 -49 92 -53 100 -5
8 -47 89 -95 180 -47 91 -108 206 -134 255 -26 50 -71 135 -100 190 -97 185
-142 270 -180 340 -20 39 -63 120 -95 180 -63 120 -105 199 -184 347 l-52 97
0 271 c0 148 2 274 5 278 2 4 502 7 1110 6 996 0 1106 1 1110 15 3 9 4 116 4
239 l-1 222 -1113 0 -1113 0 -3 97 c-2 54 -2 149 0 210 l3 113 1605 0 1604 0
0 235 0 235 -3500 0 -3500 0 0 -235z"/>
</g>
</svg>
